<svg xmlns="http://www.w3.org/2000/svg" width="192.395" height="17.317" viewBox="0 0 192.395 17.317"><g transform="translate(-6713.265 -899.787)"><g transform="translate(6751.2 899.787)"><path d="M6780.57,912.185l5.516-12.4v12.4Z" transform="translate(-6779.658 -899.787)" fill="#00bfc1"/><path d="M6778.989,923.525h6.428v3.417h-3.5Z" transform="translate(-6778.989 -909.824)" fill="#00bfc1"/><path d="M6797.244,913.89h-4.967V903.817Z" transform="translate(-6784.608 -901.491)" fill="#00bfc1"/><path d="M6798.584,923.525l-2.775,3.417h-3.532v-3.417Z" transform="translate(-6784.608 -909.824)" fill="#00bfc1"/></g><g transform="translate(6713.265 902.814)"><path d="M6725.609,915.5c0,2.382-1.866,3.771-5.437,3.771h-6.907V905.375h6.51c3.334,0,5.12,1.409,5.12,3.612a3.331,3.331,0,0,1-1.786,3.056A3.421,3.421,0,0,1,6725.609,915.5Zm-9.764-8.1v3.83h3.651c1.787,0,2.8-.635,2.8-1.905,0-1.29-1.012-1.925-2.8-1.925Zm7.165,7.839c0-1.389-1.052-2-3-2h-4.167v4.009h4.167C6721.958,917.243,6723.01,916.628,6723.01,915.239Z" transform="translate(-6713.265 -905.177)" fill="#00bfc1"/><path d="M6744.586,912.176c0-4.108,3.176-7.144,7.482-7.144s7.481,3.016,7.481,7.144-3.175,7.145-7.481,7.145S6744.586,916.284,6744.586,912.176Zm12.364,0a4.882,4.882,0,1,0-4.882,4.882A4.734,4.734,0,0,0,6756.951,912.176Z" transform="translate(-6726.508 -905.032)" fill="#00bfc1"/><path d="M6815.413,907.558h-4.6v-2.183H6822.6v2.183h-4.6v11.709h-2.58Z" transform="translate(-6754.509 -905.177)" fill="#00bfc1"/><path d="M6864.727,916.052h-6.946l-1.369,3.216h-2.66L6860,905.375h2.541l6.271,13.893h-2.7Zm-.853-2.024-2.62-6.073-2.6,6.073Z" transform="translate(-6772.667 -905.177)" fill="#00bfc1"/><path d="M6902.13,915.5c0,2.382-1.866,3.771-5.438,3.771h-6.906V905.375h6.509c3.333,0,5.12,1.409,5.12,3.612a3.331,3.331,0,0,1-1.787,3.056A3.421,3.421,0,0,1,6902.13,915.5Zm-9.765-8.1v3.83h3.652c1.786,0,2.8-.635,2.8-1.905,0-1.29-1.013-1.925-2.8-1.925Zm7.165,7.839c0-1.389-1.052-2-3-2h-4.168v4.009h4.168C6898.478,917.243,6899.53,916.628,6899.53,915.239Z" transform="translate(-6787.903 -905.177)" fill="#00bfc1"/><path d="M6931.005,919.268l-2.838-4.069a4.748,4.748,0,0,1-.536.02H6924.5v4.048h-2.58V905.375h5.716c3.651,0,5.914,1.866,5.914,4.942a4.441,4.441,0,0,1-2.957,4.386l3.2,4.565Zm-3.494-11.709H6924.5V913.1h3.017c2.263,0,3.434-1.032,3.434-2.779S6929.774,907.558,6927.512,907.558Z" transform="translate(-6801.488 -905.177)" fill="#00bfc1"/><path d="M6952.43,912.176c0-4.108,3.175-7.144,7.482-7.144s7.481,3.016,7.481,7.144-3.175,7.145-7.481,7.145S6952.43,916.284,6952.43,912.176Zm12.364,0a4.882,4.882,0,1,0-4.882,4.882A4.734,4.734,0,0,0,6964.794,912.176Z" transform="translate(-6814.391 -905.032)" fill="#00bfc1"/><path d="M6997.891,916.052h-6.946l-1.37,3.216h-2.659l6.251-13.893h2.54l6.272,13.893h-2.7Zm-.854-2.024-2.619-6.073-2.6,6.073Z" transform="translate(-6828.973 -905.177)" fill="#00bfc1"/><path d="M7022.949,905.375h6.073c4.5,0,7.581,2.778,7.581,6.946s-3.077,6.946-7.581,6.946h-6.073Zm5.954,11.71c3.1,0,5.1-1.886,5.1-4.763s-2-4.763-5.1-4.763h-3.375v9.526Z" transform="translate(-6844.208 -905.177)" fill="#00bfc1"/></g></g></svg>